<?xml version="1.0" encoding="UTF-8"?>
<svg width="512" height="512" viewBox="0 0 512 512" fill="none" xmlns="http://www.w3.org/2000/svg">
  <rect width="512" height="512" rx="128" fill="#7B68EE"/>
  <path d="M256 128C185.307 128 128 185.307 128 256C128 326.693 185.307 384 256 384C326.693 384 384 326.693 384 256C384 185.307 326.693 128 256 128ZM256 170.667C279.455 170.667 298.667 189.878 298.667 213.333C298.667 236.788 279.455 256 256 256C232.545 256 213.333 236.788 213.333 213.333C213.333 189.878 232.545 170.667 256 170.667ZM256 341.333C213.333 341.333 176.213 322.133 154.667 292.267C155.733 274.133 222.933 264 256 264C288.853 264 356.267 274.133 357.333 292.267C335.787 322.133 298.667 341.333 256 341.333Z" fill="white"/>
</svg>
