<svg width="162" height="215" viewBox="0 0 162 215" fill="none" xmlns="http://www.w3.org/2000/svg">
<mask id="path-1-inside-1_117_15" fill="white">
<path d="M86.3702 40.1576C88.3229 38.205 91.4887 38.205 93.4413 40.1576L141.941 88.6571C152.876 99.5918 152.876 117.32 141.941 128.255L93.458 176.738C91.5054 178.691 88.3395 178.691 86.3869 176.738L37.8874 128.238C26.9527 117.304 26.9527 99.5752 37.8874 88.6405L86.3702 40.1576Z"/>
</mask>
<path d="M86.3702 40.1576C88.3229 38.205 91.4887 38.205 93.4413 40.1576L141.941 88.6571C152.876 99.5918 152.876 117.32 141.941 128.255L93.458 176.738C91.5054 178.691 88.3395 178.691 86.3869 176.738L37.8874 128.238C26.9527 117.304 26.9527 99.5752 37.8874 88.6405L86.3702 40.1576Z" stroke="white" stroke-width="22" mask="url(#path-1-inside-1_117_15)"/>
<mask id="path-2-inside-2_117_15" fill="white">
<path d="M79.4574 10.6066C85.3152 4.74874 94.8127 4.74874 100.671 10.6066L135.529 45.4653C141.387 51.3232 141.387 60.8206 135.529 66.6785L93.5995 108.608C91.6469 110.561 88.4811 110.561 86.5284 108.608L33.9921 56.0719L79.4574 10.6066Z"/>
</mask>
<path d="M79.4574 10.6066C85.3152 4.74874 94.8127 4.74874 100.671 10.6066L135.529 45.4653C141.387 51.3232 141.387 60.8206 135.529 66.6785L93.5995 108.608C91.6469 110.561 88.4811 110.561 86.5284 108.608L33.9921 56.0719L79.4574 10.6066Z" stroke="white" stroke-width="22" mask="url(#path-2-inside-2_117_15)"/>
<mask id="path-3-inside-3_117_15" fill="white">
<path d="M86.2887 102.019C88.2413 100.066 91.4071 100.066 93.3598 102.019L136.972 145.631C142.83 151.489 142.83 160.987 136.972 166.845L100.019 203.798C94.1613 209.656 84.6639 209.656 78.806 203.798L42.2645 167.256C36.4067 161.398 36.4067 151.901 42.2646 146.043L86.2887 102.019Z"/>
</mask>
<path d="M86.2887 102.019C88.2413 100.066 91.4071 100.066 93.3598 102.019L136.972 145.631C142.83 151.489 142.83 160.987 136.972 166.845L100.019 203.798C94.1613 209.656 84.6639 209.656 78.806 203.798L42.2645 167.256C36.4067 161.398 36.4067 151.901 42.2646 146.043L86.2887 102.019Z" stroke="white" stroke-width="22" mask="url(#path-3-inside-3_117_15)"/>
<mask id="path-4-inside-4_117_15" fill="white">
<path d="M41.7656 48.2993L91.6087 98.1424C95.514 102.048 95.514 108.379 91.6087 112.285L67.5209 136.372C61.6631 142.23 52.1656 142.23 46.3077 136.372L10.6067 100.671C4.74887 94.8136 4.74886 85.3161 10.6067 79.4582L41.7656 48.2993Z"/>
</mask>
<path d="M41.7656 48.2993L91.6087 98.1424C95.514 102.048 95.514 108.379 91.6087 112.285L67.5209 136.372C61.6631 142.23 52.1656 142.23 46.3077 136.372L10.6067 100.671C4.74887 94.8136 4.74886 85.3161 10.6067 79.4582L41.7656 48.2993Z" stroke="white" stroke-width="22" mask="url(#path-4-inside-4_117_15)"/>
</svg>
